<?xml version="1.0" encoding="utf-8"?>
<!-- Generator: Adobe Illustrator 16.0.0, SVG Export Plug-In . SVG Version: 6.00 Build 0)  -->
<!DOCTYPE svg PUBLIC "-//W3C//DTD SVG 1.1//EN" "http://www.w3.org/Graphics/SVG/1.1/DTD/svg11.dtd">
<svg version="1.1" id="图层_1" xmlns="http://www.w3.org/2000/svg" xmlns:xlink="http://www.w3.org/1999/xlink" x="0px" y="0px"
	 width="50px" height="88px" viewBox="0 0 50 88" enable-background="new 0 0 50 88" xml:space="preserve">
<path fill="#D47783" d="M4.359,44.008L49.24,3.188c0.746-0.679,0.804-1.835,0.127-2.584c-0.674-0.752-1.827-0.81-2.572-0.129
	L0.423,42.651c-0.023,0.021-0.032,0.052-0.055,0.073c-0.021,0.023-0.051,0.032-0.072,0.056c-0.064,0.069-0.089,0.157-0.14,0.234
	c-0.067,0.103-0.14,0.2-0.187,0.313c-0.043,0.109-0.058,0.219-0.08,0.333c-0.023,0.116-0.052,0.229-0.05,0.349
	c0,0.113,0.025,0.223,0.046,0.335c0.023,0.119,0.039,0.232,0.085,0.346c0.044,0.11,0.118,0.207,0.184,0.309
	c0.051,0.077,0.077,0.165,0.141,0.236c0.021,0.023,0.049,0.03,0.07,0.052c0.023,0.023,0.032,0.056,0.057,0.077l46.372,42.162
	C47.144,87.844,47.582,88,48.018,88c0.496,0,0.99-0.204,1.35-0.603c0.677-0.749,0.617-1.907-0.127-2.585L4.359,44.008z"/>
<g>
</g>
<g>
</g>
<g>
</g>
<g>
</g>
<g>
</g>
<g>
</g>
</svg>
