<?xml version="1.0" encoding="utf-8"?>
<!-- Generator: Adobe Illustrator 16.0.0, SVG Export Plug-In . SVG Version: 6.00 Build 0)  -->
<!DOCTYPE svg PUBLIC "-//W3C//DTD SVG 1.1//EN" "http://www.w3.org/Graphics/SVG/1.1/DTD/svg11.dtd">
<svg version="1.1" id="图层_1" xmlns="http://www.w3.org/2000/svg" xmlns:xlink="http://www.w3.org/1999/xlink" x="0px" y="0px"
	 width="50px" height="88px" viewBox="0 0 50 88" enable-background="new 0 0 50 88" xml:space="preserve">
<path fill="#D47783" d="M50.113,44.345c0.021-0.112,0.047-0.222,0.047-0.335c0.001-0.119-0.027-0.232-0.051-0.349
	c-0.021-0.114-0.036-0.224-0.08-0.333c-0.045-0.113-0.119-0.211-0.187-0.313c-0.049-0.077-0.074-0.165-0.139-0.234
	c-0.021-0.023-0.051-0.032-0.072-0.056c-0.023-0.021-0.032-0.052-0.055-0.073L3.205,0.475C2.46-0.206,1.306-0.148,0.633,0.604
	c-0.677,0.749-0.62,1.905,0.127,2.584l44.881,40.82L0.76,84.813c-0.745,0.678-0.804,1.836-0.127,2.585
	C0.991,87.796,1.486,88,1.982,88c0.436,0,0.873-0.156,1.223-0.474l46.372-42.162c0.023-0.021,0.033-0.054,0.056-0.077
	c0.022-0.021,0.05-0.028,0.071-0.052c0.064-0.071,0.09-0.159,0.141-0.236c0.065-0.102,0.14-0.198,0.184-0.309
	C50.074,44.577,50.091,44.464,50.113,44.345z"/>
<g>
</g>
<g>
</g>
<g>
</g>
<g>
</g>
<g>
</g>
<g>
</g>
</svg>
