<?xml version="1.0" encoding="utf-8"?>
<!-- Generator: Adobe Illustrator 16.0.0, SVG Export Plug-In . SVG Version: 6.00 Build 0)  -->
<!DOCTYPE svg PUBLIC "-//W3C//DTD SVG 1.1//EN" "http://www.w3.org/Graphics/SVG/1.1/DTD/svg11.dtd">
<svg version="1.1" id="图层_1" xmlns="http://www.w3.org/2000/svg" xmlns:xlink="http://www.w3.org/1999/xlink" x="0px" y="0px"
	 width="60px" height="60px" viewBox="0 0 60 60" enable-background="new 0 0 60 60" xml:space="preserve">
<g>
	<path fill="#FFFFFF" d="M51,58H39V36.258C39,33.724,37.252,32,34.717,32h-9.35C22.833,32,21,33.724,21,36.258V58H9V29H7v31h46V29
		h-2V58z M23,36.258C23,34.863,23.973,34,25.367,34h9.35C36.109,34,37,34.863,37,36.258V58H23V36.258z"/>
	<polygon fill="#FFFFFF" points="30.042,0 0,29.667 1.454,31.137 30.042,2.909 58.631,31.137 60.084,29.667 	"/>
</g>
<g>
</g>
<g>
</g>
<g>
</g>
<g>
</g>
<g>
</g>
<g>
</g>
</svg>
