<?xml version="1.0" encoding="utf-8"?>
<!-- Generator: Adobe Illustrator 16.0.0, SVG Export Plug-In . SVG Version: 6.00 Build 0)  -->
<!DOCTYPE svg PUBLIC "-//W3C//DTD SVG 1.1//EN" "http://www.w3.org/Graphics/SVG/1.1/DTD/svg11.dtd">
<svg version="1.1" id="图层_1" xmlns="http://www.w3.org/2000/svg" xmlns:xlink="http://www.w3.org/1999/xlink" x="0px" y="0px"
	 width="343px" height="56px" viewBox="0 0 343 56" enable-background="new 0 0 343 56" xml:space="preserve">
<g>
	<g>
		<path fill="#D47783" d="M30.371,51.114h-21.5v4.25h-8.25v-54h38.25v54h-8.5V51.114z M8.621,16.114h21.5v-7.5h-21.5V16.114z
			 M8.621,22.614v7.75h21.75v-7.75H8.621z M8.871,36.864v8.25h21.5v-8.25H8.871z"/>
		<path fill="#D47783" d="M111.371,9.614v-3h-31.5v-6.75h40.25c0,1.668,0,4.25,0,7.75c-0.168,3.668-0.25,6.418-0.25,8.25v2.75h9v7
			h-24c2,3.5,3.582,6,4.75,7.5c1.332-1,3.164-2.664,5.5-5c1.332-1.164,2.082-1.75,2.25-1.75c3.164,2,5.664,4,7.5,6
			c-0.168,0.168-0.668,0.5-1.5,1c-3,1.5-6,3.168-9,5c3.664,3.336,9,5.668,16,7c-1.668,1.336-3.418,4.086-5.25,8.25
			c-8.836-3-15.418-7.832-19.75-14.5v11c1,4-3.5,5.914-13.5,5.75c0-3-0.668-5.668-2-8h5c1.332,0,2-0.664,2-2v-5.5
			c-2.336,1.336-6.336,3.586-12,6.75c-3.836,2-6.336,3.332-7.5,4c-0.168,0.332-0.336,0.332-0.5,0c-1.336-1.5-2.918-3.75-4.75-6.75
			l2-0.75c8-3.332,15.582-7,22.75-11v-7h-24v-7h38.5v-2.75h-29.5v-6.25H111.371z M91.121,33.614l-7.75,4
			c-0.668-1.664-2.168-4.25-4.5-7.75l8-3.75C88.703,28.614,90.121,31.114,91.121,33.614z"/>
	</g>
	<g>
		<path fill="#B4B3B3" d="M181.518,38.067l4.547,1.148c-0.953,3.734-2.668,6.582-5.145,8.543s-5.504,2.941-9.082,2.941
			c-3.703,0-6.715-0.754-9.035-2.262s-4.086-3.691-5.297-6.551s-1.816-5.93-1.816-9.211c0-3.578,0.684-6.699,2.051-9.363
			s3.313-4.688,5.836-6.07s5.301-2.074,8.332-2.074c3.437,0,6.328,0.875,8.671,2.625s3.977,4.211,4.898,7.383l-4.477,1.055
			c-0.797-2.5-1.953-4.32-3.469-5.461s-3.422-1.711-5.718-1.711c-2.641,0-4.848,0.633-6.621,1.898s-3.02,2.965-3.738,5.098
			s-1.078,4.332-1.078,6.598c0,2.922,0.426,5.473,1.277,7.652s2.176,3.809,3.973,4.887s3.742,1.617,5.836,1.617
			c2.546,0,4.703-0.734,6.468-2.203S180.893,40.958,181.518,38.067z"/>
		<path fill="#B4B3B3" d="M189.557,37.669c0-4.609,1.281-8.023,3.844-10.242c2.141-1.844,4.75-2.766,7.828-2.766
			c3.422,0,6.219,1.121,8.391,3.363s3.258,5.34,3.258,9.293c0,3.203-0.48,5.723-1.441,7.559s-2.359,3.262-4.195,4.277
			s-3.84,1.523-6.012,1.523c-3.484,0-6.301-1.117-8.449-3.352S189.557,41.872,189.557,37.669z M193.893,37.669
			c0,3.188,0.695,5.574,2.086,7.16s3.141,2.379,5.25,2.379c2.094,0,3.836-0.797,5.227-2.391s2.086-4.023,2.086-7.289
			c0-3.078-0.699-5.41-2.098-6.996s-3.137-2.379-5.215-2.379c-2.109,0-3.859,0.789-5.25,2.367S193.893,34.481,193.893,37.669z"/>
		<path fill="#B4B3B3" d="M217.822,50.114V25.224h3.797v3.539c1.828-2.734,4.469-4.102,7.922-4.102c1.5,0,2.879,0.27,4.137,0.809
			s2.199,1.246,2.824,2.121s1.063,1.914,1.313,3.117c0.156,0.781,0.234,2.148,0.234,4.102v15.305h-4.219V34.974
			c0-1.719-0.164-3.004-0.492-3.855s-0.91-1.531-1.746-2.039s-1.816-0.762-2.941-0.762c-1.797,0-3.348,0.57-4.652,1.711
			s-1.957,3.305-1.957,6.492v13.594H217.822z"/>
		<path fill="#B4B3B3" d="M253.729,46.341l0.609,3.727c-1.188,0.25-2.25,0.375-3.188,0.375c-1.531,0-2.719-0.242-3.563-0.727
			s-1.438-1.121-1.781-1.91s-0.516-2.449-0.516-4.98v-14.32h-3.094v-3.281h3.094V19.06l4.195-2.531v8.695h4.242v3.281h-4.242V43.06
			c0,1.203,0.074,1.977,0.223,2.32s0.391,0.617,0.727,0.82s0.816,0.305,1.441,0.305C252.346,46.505,252.963,46.45,253.729,46.341z"
			/>
		<path fill="#B4B3B3" d="M274.893,42.099l4.359,0.539c-0.688,2.547-1.961,4.523-3.82,5.93s-4.234,2.109-7.125,2.109
			c-3.641,0-6.527-1.121-8.66-3.363s-3.199-5.387-3.199-9.434c0-4.188,1.078-7.438,3.234-9.75s4.953-3.469,8.391-3.469
			c3.328,0,6.047,1.133,8.156,3.398s3.164,5.453,3.164,9.563c0,0.25-0.008,0.625-0.023,1.125h-18.563
			c0.156,2.734,0.93,4.828,2.32,6.281s3.125,2.18,5.203,2.18c1.547,0,2.867-0.406,3.961-1.219S274.252,43.88,274.893,42.099z
			 M261.041,35.278h13.898c-0.188-2.094-0.719-3.664-1.594-4.711c-1.344-1.625-3.086-2.438-5.227-2.438
			c-1.938,0-3.566,0.648-4.887,1.945S261.182,33.106,261.041,35.278z"/>
		<path fill="#B4B3B3" d="M284.549,50.114V25.224h3.797v3.539c1.828-2.734,4.469-4.102,7.922-4.102c1.5,0,2.879,0.27,4.137,0.809
			s2.199,1.246,2.824,2.121s1.063,1.914,1.313,3.117c0.156,0.781,0.234,2.148,0.234,4.102v15.305h-4.219V34.974
			c0-1.719-0.164-3.004-0.492-3.855s-0.91-1.531-1.746-2.039s-1.816-0.762-2.941-0.762c-1.797,0-3.348,0.57-4.652,1.711
			s-1.957,3.305-1.957,6.492v13.594H284.549z"/>
		<path fill="#B4B3B3" d="M320.455,46.341l0.609,3.727c-1.188,0.25-2.25,0.375-3.188,0.375c-1.531,0-2.719-0.242-3.563-0.727
			s-1.438-1.121-1.781-1.91s-0.516-2.449-0.516-4.98v-14.32h-3.094v-3.281h3.094V19.06l4.195-2.531v8.695h4.242v3.281h-4.242V43.06
			c0,1.203,0.074,1.977,0.223,2.32s0.391,0.617,0.727,0.82s0.816,0.305,1.441,0.305C319.072,46.505,319.689,46.45,320.455,46.341z"
			/>
		<path fill="#B4B3B3" d="M322.893,42.685l4.172-0.656c0.234,1.672,0.887,2.953,1.957,3.844s2.566,1.336,4.488,1.336
			c1.938,0,3.375-0.395,4.313-1.184s1.406-1.715,1.406-2.777c0-0.953-0.414-1.703-1.242-2.25c-0.578-0.375-2.016-0.852-4.313-1.43
			c-3.094-0.781-5.238-1.457-6.434-2.027s-2.102-1.359-2.719-2.367s-0.926-2.121-0.926-3.34c0-1.109,0.254-2.137,0.762-3.082
			s1.199-1.73,2.074-2.355c0.656-0.484,1.551-0.895,2.684-1.23s2.348-0.504,3.645-0.504c1.953,0,3.668,0.281,5.145,0.844
			s2.566,1.324,3.27,2.285s1.188,2.246,1.453,3.855l-4.125,0.563c-0.188-1.281-0.73-2.281-1.629-3s-2.168-1.078-3.809-1.078
			c-1.938,0-3.32,0.32-4.148,0.961s-1.242,1.391-1.242,2.25c0,0.547,0.172,1.039,0.516,1.477c0.344,0.453,0.883,0.828,1.617,1.125
			c0.422,0.156,1.664,0.516,3.727,1.078c2.984,0.797,5.066,1.449,6.246,1.957s2.105,1.246,2.777,2.215s1.008,2.172,1.008,3.609
			c0,1.406-0.41,2.73-1.23,3.973s-2.004,2.203-3.551,2.883s-3.297,1.02-5.25,1.02c-3.234,0-5.699-0.672-7.395-2.016
			S323.361,45.325,322.893,42.685z"/>
	</g>
</g>
<g>
</g>
<g>
</g>
<g>
</g>
<g>
</g>
<g>
</g>
<g>
</g>
</svg>
