<?xml version="1.0" encoding="utf-8"?>
<!-- Generator: Adobe Illustrator 16.0.0, SVG Export Plug-In . SVG Version: 6.00 Build 0)  -->
<!DOCTYPE svg PUBLIC "-//W3C//DTD SVG 1.1//EN" "http://www.w3.org/Graphics/SVG/1.1/DTD/svg11.dtd">
<svg version="1.1" id="图层_1" xmlns="http://www.w3.org/2000/svg" xmlns:xlink="http://www.w3.org/1999/xlink" x="0px" y="0px"
	 width="1000px" height="1600px" viewBox="0 0 1000 1600" enable-background="new 0 0 1000 1600" xml:space="preserve">
<rect x="629.313" y="478.062" fill="#D47783" width="340.688" height="356.127"/>
<g>
	<path fill="#FFFFFF" d="M768.25,560.923c-0.313,0.156-0.782,0.392-1.405,0.702c-0.47,0.157-1.563,0.703-3.281,1.642h9.609
		c0.623-1.561,1.561-3.904,2.813-7.031c0.469-1.091,0.78-1.952,0.938-2.578c1.718,0.157,4.529,0.938,8.438,2.345
		c0.469,0.314,0.623,0.625,0.469,0.938c-0.156,0.157-0.392,0.392-0.703,0.703c-2.031,2.189-3.28,4.064-3.75,5.625h15.703v6.094
		h-22.733c-0.47,1.252-0.783,2.578-0.938,3.984h15.469v34.922h-7.733v-3.516H760.05v3.983h-7.5V573.11h12.891l0.234-3.75h-22.5
		v-6.094h18.047c-1.252-2.188-2.813-4.296-4.688-6.328c3.904-1.875,6.248-2.966,7.031-3.281
		C766.529,557.875,768.094,560.3,768.25,560.923z M760.048,579.203v2.813h21.094v-2.813H760.048z M760.048,590.453h21.094v-2.813
		h-21.094V590.453z M760.281,596.313v3.047h20.859v-3.047H760.281z"/>
	<path fill="#FFFFFF" d="M827.313,558.813c-0.157-0.469-0.469-1.172-0.938-2.109c-0.313-0.938-0.549-1.641-0.702-2.108
		c5.311-0.938,8.592-1.406,9.844-1.406c0.312,0.157,0.703,1.798,1.172,4.922c0,0.315,0,0.549,0,0.703h18.75v6.328h-9.375v4.219
		h9.844v6.094h-10.078v8.673h-8.438v2.813h15.469v15c0.469,2.813-3.127,4.138-10.781,3.984c-0.469-2.659-1.095-4.842-1.875-6.563
		c3.594,0.157,5.076-0.469,4.453-1.875v-4.453h-7.03v16.172h-7.97v-16.172h-6.094v12.656h-7.5v-18.75h13.828v-2.813h-8.438v-8.672
		h-6.563v4.688c0,11.25-2.344,20.391-7.031,27.422c-2.188-1.875-4.376-3.438-6.563-4.688c4.062-5.468,6.094-13.278,6.094-23.438
		v-20.625H827.313z M814.891,569.36h6.563v-4.219h-6.563V569.36z M838.094,578.5v-3.047h-9.142v3.047H838.094z M838.328,569.36
		v-4.219h-9.141v4.219H838.328z"/>
	<path fill="#FFFFFF" d="M765.438,637.375h5.859v-11.25c6.404,0,9.061,0.081,7.969,0.234c0,0.157,0,0.393,0,0.703
		c-0.314,0.784-0.469,1.641-0.469,2.578v7.5h5.391h7.031c-0.47,3.281-0.938,6.643-1.406,10.078c-0.469,3.75-0.783,7.5-0.938,11.25
		v2.813c0.154,4.376,0.857,7.188,2.109,8.438c0.469,0.157,0.703-1.326,0.703-4.453c0.154,0,1.092,0.314,2.813,0.938
		c2.029,0.626,3.358,1.019,3.984,1.173c-0.626,9.687-2.501,14.063-5.625,13.125c-1.875,0-3.516-0.703-4.922-2.109
		c-2.97-2.659-5.002-7.343-6.094-14.063l-2.344,3.281l-3.984-3.75c-2.344,5.625-6.018,11.25-11.016,16.875
		c-2.189-1.875-4.22-3.438-6.095-4.688c-0.157,2.498-3.83,3.516-11.016,3.047c-0.314-2.97-1.019-5.233-2.109-6.797
		c4.688,0.469,6.717-0.389,6.095-2.578v-9.609c-0.783,0.315-2.032,0.86-3.75,1.642c-0.938,0.469-1.642,0.783-2.109,0.938
		c-0.157-0.469-0.393-1.015-0.703-1.641c-0.783-2.345-1.486-4.297-2.109-5.859c2.345-0.78,5.233-1.794,8.672-3.047v-7.734h-8.202
		v-6.563h8.202v-11.017c5.938,0,8.438,0.081,7.5,0.234c0,0.157,0,0.469,0,0.938c-0.156,0.625-0.233,1.252-0.233,1.875v7.969h5.156
		v6.563h-5.156v5.625c1.875-0.779,3.593-1.482,5.156-2.108c0.153,0.156,0.312,1.486,0.469,3.983
		c0.154,1.406,0.233,2.344,0.233,2.813l-5.858,2.578v17.344c3.75-2.498,6.951-6.874,9.608-13.125
		c0.47-0.938,0.703-1.718,0.703-2.344c-1.563-1.092-3.203-2.109-4.922-3.048c0.469-0.469,1.016-1.248,1.642-2.344
		c1.092-1.56,1.952-2.731,2.577-3.516l2.345,1.406c0-0.154,0-0.623,0-1.406c0.312-3.124,0.469-5.233,0.469-6.328h-5.625V637.375z
		 M777.391,655.656c1.561,1.096,2.967,2.109,4.219,3.047c0-2.654,0.154-6.248,0.469-10.78c0.154-1.719,0.313-3.124,0.47-4.22h-3.984
		C778.248,647.611,777.859,651.596,777.391,655.656z"/>
	<path fill="#FFFFFF" d="M802,657.531c6.405-5.31,11.797-11.483,16.173-18.516c0.153,0,0.389,0.157,0.702,0.469
		c4.22,1.875,6.328,3.127,6.328,3.75c0,0.157-0.156,0.315-0.469,0.469c-1.563,1.563-3.596,3.984-6.094,7.267v28.594h-7.5V658
		c-1.095,1.253-2.424,2.659-3.984,4.22L802,657.531z M802.938,640.656c5.625-4.219,10.39-9.375,14.297-15.469
		c0.623,0.315,1.952,1.018,3.984,2.109c2.498,1.095,3.75,1.721,3.75,1.875c0,0.156-0.234,0.469-0.703,0.938
		c-0.783,0.469-1.563,1.095-2.344,1.875c-5.472,6.094-10.001,10.547-13.595,13.359C807.233,643.938,805.436,642.378,802.938,640.656
		z M824.969,644.406h32.578v6.563h-8.906v24.141c0.312,3.593-3.438,5.392-11.25,5.392c-0.314-2.971-1.172-5.472-2.578-7.5
		c4.53,0.156,6.563-0.389,6.094-1.642V650.97h-15.938V644.406z M853.798,629.406v6.094h-25.313v-6.094H853.798z"/>
	<path fill="#FFFFFF" d="M745.516,751.563v-51.328H794.5v51.563h-7.733v-2.345h-33.984v2.109H745.516z M787,706.563h-33.983v37.266
		H787V706.563z M786.766,733.048c-0.626,6.408-3.047,9.375-7.267,8.905h-3.516c-3.907,0.157-5.705-1.325-5.391-4.453V724.61h-2.109
		c0.154,7.346-3.204,13.359-10.078,18.047c-1.406-1.875-3.047-3.516-4.922-4.922c5.156-3.124,7.813-7.5,7.969-13.125h-6.563v-6.094
		h30.234v6.094h-7.5v9.609c0,0.784,0.389,1.172,1.172,1.172c0.938,0.469,1.641-1.016,2.108-4.453
		c0.313,0.157,0.703,0.315,1.172,0.469C784.265,732.191,785.828,732.736,786.766,733.048z M757.469,715.703v-6.094h25.078v6.094
		H757.469z"/>
	<path fill="#FFFFFF" d="M831.766,715.938l3.516-1.172v-16.172h2.578c3.124,0,4.842,0.314,5.156,0.938c0,0.157,0,0.315,0,0.469
		c-0.314,0.938-0.469,1.875-0.469,2.813v9.844l11.483-4.219v22.5c1.249,5.156-1.563,7.815-8.438,7.969
		c-0.783-2.498-1.642-4.765-2.578-6.797c2.498,0.469,3.593-0.856,3.281-3.983v-10.313l-3.75,1.406v21.563h-7.267v-19.219
		l-3.516,1.406v16.172c-0.783,5.002,1.641,7.112,7.266,6.328h4.22c5.311,0.626,7.733-1.642,7.266-6.797
		c2.498,0.783,5.076,1.486,7.734,2.108c-0.314,5.313-1.329,8.516-3.048,9.609c-1.095,1.249-4.922,1.794-11.483,1.641h-5.859
		c-9.844,0.623-14.22-2.108-13.125-8.203v-18.516l-3.047,1.172l-1.875-7.031h-2.578v14.063l5.391-2.109
		c0,1.095,0.077,2.501,0.234,4.22c0.154,1.563,0.154,2.344,0,2.344c-4.688,1.875-9.767,4.142-15.234,6.797
		c-1.563,0.784-2.424,1.172-2.577,1.172c-1.722-5.468-2.501-8.357-2.345-8.672c0.154-0.154,0.857-0.313,2.109-0.469
		c2.029-0.313,3.75-0.703,5.156-1.172v-16.173h-6.563v-6.327h6.563v-14.063h2.344c4.063,0,5.859,0.315,5.391,0.938
		c0,0.156-0.08,0.392-0.233,0.702c-0.157,0.784-0.234,1.798-0.234,3.048v9.375h5.625v5.155l1.875-0.703v-12.422h2.578
		c3.281,0,4.922,0.234,4.922,0.703c0,0.157,0,0.469,0,0.938c-0.313,0.938-0.469,1.798-0.469,2.578V715.938z"/>
</g>
</svg>
