<?xml version="1.0" encoding="utf-8"?>
<!-- Generator: Adobe Illustrator 16.0.0, SVG Export Plug-In . SVG Version: 6.00 Build 0)  -->
<!DOCTYPE svg PUBLIC "-//W3C//DTD SVG 1.1//EN" "http://www.w3.org/Graphics/SVG/1.1/DTD/svg11.dtd">
<svg version="1.1" id="图层_1" xmlns="http://www.w3.org/2000/svg" xmlns:xlink="http://www.w3.org/1999/xlink" x="0px" y="0px"
	 width="1000px" height="1600px" viewBox="0 0 1000 1600" enable-background="new 0 0 1000 1600" xml:space="preserve">
<rect x="629.313" y="1191.136" fill="#E5B0B3" width="340.688" height="356.128"/>
<g>
	<path fill="#FFFFFF" d="M681.766,1367.324c9.219-8.591,14.375-16.641,15.469-24.141c4.373,1.253,7.42,2.109,9.142,2.578
		c0.622,0.314,0.702,0.703,0.233,1.172c-6.563,10.628-12.422,19.219-17.578,25.781
		C687.156,1370.688,684.732,1368.889,681.766,1367.324z M690.438,1383.731l0.469-0.234c5.156-1.56,9.765-9.294,13.828-23.203
		c0.938,0,3.904,0.784,8.906,2.345c0.313,0.314,0.389,0.626,0.233,0.938c-3.438,5.003-7.188,11.331-11.25,18.984
		c0.47,0.157,3.671,0,9.609-0.469c2.656-0.153,4.531-0.234,5.625-0.234c-1.721-2.497-3.672-4.841-5.859-7.031l6.798-4.219
		c5.625,7.031,9.998,13.282,13.125,18.75l-8.673,3.75c-0.313-1.563-1.172-3.362-2.577-5.391
		c-10.313,0.469-18.906,1.482-25.781,3.047c-1.094,0.152-1.721,0.233-1.875,0.233c-0.314-0.156-1.094-2.267-2.344-6.328
		C690.516,1384.199,690.438,1383.889,690.438,1383.731z M731.453,1372.716c-8.438-5.938-14.846-15-19.219-27.188
		c-0.469-1.718-0.859-2.813-1.172-3.281c1.875-0.938,4.531-1.56,7.969-1.875c1.406,8.284,7.654,16.329,18.75,24.142
		C735.593,1366.702,733.482,1369.435,731.453,1372.716z"/>
	<path fill="#FFFFFF" d="M782.078,1353.731v6.328h-36.094v-6.328H782.078z M784.891,1349.513h-36.094v-7.031h44.297v42.656
		c1.405,6.563-3.047,9.452-13.359,8.672c-0.313-2.659-0.783-5.003-1.406-7.031c4.843,0.315,7.031-0.78,6.563-3.281L784.891,1349.513
		L784.891,1349.513z M770.828,1386.543v-3.516h-12.891v4.453h-7.5v-23.438h28.359v22.5H770.828L770.828,1386.543z M770.828,1370.371
		h-12.891v6.563h12.891V1370.371z"/>
	<path fill="#FFFFFF" d="M801.298,1364.513c5.311-6.563,9.061-15.077,11.25-25.547c2.967,0.626,5.778,1.405,8.438,2.344
		c1.25,0.314,1.562,0.938,0.938,1.875c-0.156,0.314-0.314,0.55-0.47,0.703c-0.155,0.157-0.313,0.469-0.469,0.938
		c-0.313,0.315-0.549,0.626-0.703,0.938h12.656l-2.109-6.094l9.375-0.938l1.406,7.031h14.767v6.328h-37.734v-2.813
		c-0.314,0.938-0.859,2.19-1.641,3.75v40.313h-7.734v-27.656c-0.314,0.938-1.094,2.189-2.344,3.75
		c-0.314,0.469-0.55,0.784-0.703,0.938C803.875,1367.248,802.234,1365.297,801.298,1364.513z M852.391,1369.903h-31.172v-5.859
		h31.172V1369.903z M852.391,1355.138v6.094h-30.938v-6.094H852.391z M829.188,1393.341h-7.266v-20.392h29.766v20.625h-7.734v-3.047
		h-14.766V1393.341z M843.719,1379.043h-14.531v6.095h14.531V1379.043z"/>
	<path fill="#FFFFFF" d="M862.703,1387.716c2.656-2.813,4.843-6.563,6.563-11.25l6.563,2.813c-1.875,4.065-4.063,7.892-6.563,11.484
		C867.546,1389.824,865.359,1388.807,862.703,1387.716z M872.078,1343.888h9.375c0.623-3.124,1.093-4.766,1.406-4.922
		c6.248,0.469,9.453,0.859,9.609,1.172c0.153,0.157-0.08,0.703-0.703,1.641c-0.783,0.938-1.252,1.642-1.406,2.109h17.344v30.469
		h-35.625V1343.888z M896.219,1392.638h-8.906c-3.281,0-5.625-0.393-7.031-1.172c-1.563-0.938-2.424-2.659-2.578-5.156v-10.078
		h1.173c5-0.153,7.186,0.234,6.563,1.172c0.154,0.315,0.078,0.703-0.234,1.172c-0.155,0.626-0.233,1.095-0.233,1.406v3.984
		c0,1.722,0.938,2.577,2.813,2.577h7.97c2.967,0.157,4.372-1.324,4.219-4.452c1.719,0.626,3.903,1.253,6.563,1.875l1.406,0.469
		C907.623,1390.213,903.719,1392.948,896.219,1392.638z M879.344,1352.324h20.625v-2.578h-20.625V1352.324z M900.203,1357.716
		h-20.625v2.577h20.625V1357.716z M879.813,1365.685v2.578h20.391v-2.578H879.813z M895.281,1374.824
		c0.623,0.784,1.795,3.128,3.517,7.031l-7.031,2.813l-0.703-1.641c-1.094-2.497-2.031-4.453-2.813-5.859L895.281,1374.824z
		 M903.953,1379.278c2.656-1.56,4.607-2.89,5.859-3.984c2.967,3.598,5.703,7.031,8.203,10.313l-6.328,4.219
		C909.656,1385.922,907.078,1382.406,903.953,1379.278z"/>
</g>
</svg>
