<?xml version="1.0" encoding="utf-8"?>
<!-- Generator: Adobe Illustrator 16.0.0, SVG Export Plug-In . SVG Version: 6.00 Build 0)  -->
<!DOCTYPE svg PUBLIC "-//W3C//DTD SVG 1.1//EN" "http://www.w3.org/Graphics/SVG/1.1/DTD/svg11.dtd">
<svg version="1.1" id="图层_1" xmlns="http://www.w3.org/2000/svg" xmlns:xlink="http://www.w3.org/1999/xlink" x="0px" y="0px"
	 width="1000px" height="1600px" viewBox="0 0 1000 1600" enable-background="new 0 0 1000 1600" xml:space="preserve">
<g>
	<path fill="#040000" d="M753.438,411.593h-2.656c0.313-5.833,3.332-8.906,9.063-9.22c5.52,0.211,8.438,2.762,8.75,7.656
		c0,3.647-2.813,7.085-8.438,10.313c-1.875,1.042-3.18,1.823-3.905,2.344c-2.5,1.772-3.699,3.647-3.595,5.625h15.625v2.188h-18.438
		c0.102-3.125,0.832-5.415,2.188-6.875c1.664-1.875,4.22-3.853,7.656-5.938c4.271-2.188,6.301-4.688,6.094-7.5
		c-0.211-3.646-2.293-5.571-6.25-5.781C755.677,404.823,753.645,407.218,753.438,411.593z"/>
	<path fill="#040000" d="M781.25,402.375c6.457-0.104,9.634,4.74,9.531,14.53c0.103,9.375-3.074,14.009-9.531,13.906
		c-6.461,0.103-9.637-4.634-9.53-14.219C771.613,407.011,774.789,402.272,781.25,402.375z M788.281,416.593
		c0.103-8.229-2.242-12.29-7.031-12.188c-4.688,0-7.03,4.167-7.03,12.5c0,8.125,2.344,12.136,7.03,12.031
		C786.039,428.937,788.384,424.823,788.281,416.593z"/>
	<path fill="#040000" d="M804.375,430.5v-20.938h-7.188v-1.719c4.789,0,7.395-1.821,7.813-5.47h2.031V430.5H804.375z"/>
	<path fill="#040000" d="M816.875,405.187v-2.656h17.97v2.5c-6.563,7.605-10.367,16.095-11.406,25.47h-2.813
		c0.832-8.125,4.531-16.563,11.095-25.313H816.875z"/>
	<path fill="#040000" d="M860,397.843l2.656,1.405c0.414,0.211,0.625,0.418,0.625,0.625c0,0.105-0.156,0.211-0.469,0.313
		c-0.523,0.104-1.043,0.522-1.563,1.25c0.102-0.103,0.051,0-0.156,0.313c-0.211,0.313-0.469,0.679-0.781,1.094
		c-0.105,0.313-0.211,0.521-0.313,0.625h19.53c0.625,0,1.613-0.104,2.97-0.313c-0.938,0.21-0.781,0.21,0.469,0v2.656
		c-0.105,0-0.313,0-0.625,0c-1.043-0.208-1.98-0.313-2.813-0.313h-9.375v6.875h7.031c1.146,0,2.238-0.103,3.281-0.313v2.5
		c-1.043-0.104-2.138-0.156-3.281-0.156h-7.031v9.219h11.095c1.145,0,2.344-0.103,3.594-0.313v2.656
		c-1.461-0.208-2.656-0.313-3.594-0.313h-11.095v5c0,1.146,0.052,2.551,0.156,4.219H867.5c0.103-1.042,0.156-2.448,0.156-4.219v-5
		h-14.844c-0.625,0-1.563,0.054-2.813,0.156c-0.313,0.104-0.574,0.156-0.781,0.156v-2.656c0.207,0,0.469,0.054,0.781,0.156
		c0.831,0.104,1.77,0.155,2.813,0.155h3.281V415.5c0-1.041-0.056-2.188-0.156-3.438c1.25,0.21,2.445,0.313,3.594,0.313h8.125V405.5
		h-9.063c-0.211,0.209-0.469,0.469-0.781,0.78c-2.5,2.71-4.531,4.792-6.094,6.25c-0.938-0.833-1.931-1.458-2.969-1.875
		C854.164,407.218,857.914,402.948,860,397.843z M858.281,414.406v9.22h9.375v-9.22H858.281z"/>
	<path fill="#040000" d="M908.75,430.5v-20.938h-7.188v-1.719c4.789,0,7.395-1.821,7.813-5.47h2.031V430.5H908.75z"/>
	<path fill="#040000" d="M932.344,433.312c2.914-2.188,4.844-4.895,5.78-8.125c1.039-3.228,1.563-8.176,1.563-14.844v-6.406
		c0-1.146-0.055-2.396-0.156-3.75c1.457,0.21,2.758,0.313,3.906,0.313h13.75c1.563,0,3.07-0.104,4.531-0.313
		c-0.211,1.563-0.313,3.022-0.313,4.375v25.156c0.313,3.228-2.293,4.688-7.813,4.375c0-0.835-0.263-1.824-0.781-2.97
		c4.789,0.625,6.875-0.104,6.25-2.188v-7.969h-17.5c-0.625,5.21-2.813,9.844-6.563,13.906c-0.212-0.105-0.47-0.262-0.781-0.47
		C934.009,434.196,933.384,433.831,932.344,433.312z M942.188,411.906c-0.211,3.125-0.313,5.417-0.313,6.875h17.188v-6.875H942.188z
		 M942.188,402.531v7.345h16.875v-7.345H942.188z"/>
</g>
</svg>
