<?xml version="1.0" encoding="utf-8"?>
<!-- Generator: Adobe Illustrator 16.0.0, SVG Export Plug-In . SVG Version: 6.00 Build 0)  -->
<!DOCTYPE svg PUBLIC "-//W3C//DTD SVG 1.1//EN" "http://www.w3.org/Graphics/SVG/1.1/DTD/svg11.dtd">
<svg version="1.1" id="图层_1" xmlns="http://www.w3.org/2000/svg" xmlns:xlink="http://www.w3.org/1999/xlink" x="0px" y="0px"
	 width="1000px" height="1600px" viewBox="0 0 1000 1600" enable-background="new 0 0 1000 1600" xml:space="preserve">
<rect x="288.624" y="835.427" fill="#DC949A" width="340.688" height="356.127"/>
<g>
	<path fill="#FFFFFF" d="M350.452,964.6h-7.969v-6.094h7.969v-10.781h1.406c4.219,0,6.405,0.313,6.563,0.938
		c0,0.314-0.081,0.626-0.234,0.938c-0.469,0.938-0.703,1.798-0.703,2.578v6.328h5.625v6.094h-5.391v7.031
		c0.469-0.154,1.091-0.39,1.875-0.703c0.312-0.154,1.172-0.546,2.578-1.172c0.153,2.031,0.388,4.219,0.702,6.563l-5.155,2.109
		v15.233c0.938,5.625-2.813,7.97-11.25,7.031c-0.315-1.875-1.096-4.299-2.345-7.266c4.999,1.252,7.108,0.392,6.328-2.578v-9.609
		c-1.563,0.783-3.204,1.563-4.922,2.344l-0.703,0.47c-0.626-1.092-1.721-3.593-3.28-7.5c0.153-0.154,1.482-0.546,3.983-1.172
		c2.344-0.623,3.984-1.093,4.922-1.406V964.6z M365.687,960.615v-6.328h9.609v-7.03h1.405c3.904,0,6.014,0.233,6.328,0.703
		c0.154,0.313,0.154,0.782,0,1.405c-0.157,0.783-0.233,1.563-0.233,2.345v2.577h10.313v6.328h-10.547v5.625h14.297v6.095h-7.969
		v4.688h7.5v6.094h-7.266v12.422c0.779,4.843-2.894,7.108-11.017,6.797l-0.233-0.938c-0.47-2.658-1.253-4.845-2.345-6.563
		c4.53,0.782,6.482-0.077,5.859-2.578v-9.142H364.28v-6.094h17.109V972.1h-17.578v-6.094h11.484v-5.392H365.687z M369.202,995.068
		c-0.626-2.498-1.721-5.311-3.28-8.438l6.563-2.109c1.091,1.721,2.344,4.453,3.75,8.203L369.202,995.068z"/>
	<path fill="#FFFFFF" d="M405.297,961.553c1.875-3.594,3.903-8.516,6.094-14.767c4.373,1.563,6.797,2.501,7.266,2.813
		c-0.313,0.626-0.938,1.721-1.875,3.281c-2.344,4.063-4.299,7.733-5.858,11.016h4.688c1.092-1.875,2.344-4.296,3.75-7.266
		l6.797,3.516l-0.469,0.469h9.375v-2.578h-11.016v-5.625h11.016v-4.922h4.219c1.249,0,2.344,0,3.281,0
		c0.469,0.157,0.623,0.626,0.469,1.406c-0.157,0.783-0.233,1.486-0.233,2.109v1.405h11.483v5.625h-11.483v2.578h13.827
		c0,1.095-0.782,5.079-2.344,11.953c-1.563-0.312-4.299-0.469-8.203-0.469c0.78-2.344,1.326-4.296,1.642-5.859h-24.142v-1.875
		c-4.063,5.939-7.188,10.394-9.375,13.359c0.78-0.154,1.952-0.313,3.517-0.469c1.561-0.313,2.731-0.47,3.516-0.47
		c-0.313,2.813-0.469,4.922-0.469,6.328c-6.72,0.469-11.719,1.096-15,1.875c-0.469,0.157-0.783,0.234-0.938,0.234
		c-0.938-4.219-1.405-6.482-1.405-6.797l0.233-0.234c2.344-0.469,4.53-2.187,6.563-5.156c0.153-0.312,0.469-0.779,0.938-1.405
		c0.78-0.938,1.249-1.642,1.406-2.109c-5.782,0.314-8.752,0.703-8.906,1.172c-0.313-0.469-0.859-2.578-1.641-6.328l0.469-0.233
		C403.89,963.508,404.827,962.647,405.297,961.553z M402.015,991.084c4.688-0.47,10.857-1.562,18.516-3.281
		c-0.313,1.252-0.313,3.047,0,5.391c0,0.469,0,0.783,0,0.938c-7.5,1.405-13.205,2.577-17.108,3.516
		c-0.157-0.626-0.393-1.641-0.703-3.047C402.403,992.57,402.17,991.398,402.015,991.084z M420.999,975.381l4.923-3.984
		c2.344,2.032,4.842,4.688,7.5,7.969l-4.453,3.281h7.266c0-0.154,0-0.389,0-0.703c0.313-2.344,0.469-4.765,0.469-7.266l-3.28,2.578
		c-1.875-2.345-3.907-4.453-6.095-6.328l4.453-4.219c2.188,2.031,3.827,3.673,4.922,4.922v-3.75h3.984
		c1.249,0,2.344,0.08,3.281,0.233c0.623-0.153,0.856,0.47,0.703,1.875c-0.157,1.563-0.314,3.673-0.47,6.328
		c-0.156,2.658-0.313,4.769-0.469,6.328h11.484v5.859h-10.547c0.469,0.313,1.249,0.782,2.344,1.405
		c4.219,2.501,7.654,4.533,10.313,6.095c-1.095,1.092-2.734,2.813-4.922,5.155c1.562-1.563,1.406-1.328-0.469,0.703
		c-3.438-2.97-7.5-5.858-12.188-8.672c-4.063,4.219-9.221,7.42-15.469,9.609c-0.469-1.722-2.108-3.83-4.922-6.328
		c6.874-1.406,11.873-4.063,15-7.969H422.64v-5.859h4.453C425.372,979.834,423.344,977.412,420.999,975.381z"/>
	<path fill="#FFFFFF" d="M474.672,979.834c-2.813,8.282-5.002,13.358-6.563,15.233c-3.281-1.875-5.471-3.593-6.563-5.156
		c3.593-4.062,6.014-8.825,7.266-14.297c0.938,0.783,2.421,1.875,4.453,3.281C474.046,979.365,474.514,979.68,474.672,979.834z
		 M469.28,956.865c1.875,2.97,3.827,6.644,5.859,11.017c-0.469,0.313-1.406,0.782-2.813,1.405c-1.875,0.938-3.204,1.642-3.983,2.109
		c-1.875-3.75-3.75-6.797-5.625-9.141c-0.47-0.47-0.703-0.78-0.703-0.938C462.952,960.069,465.373,958.586,469.28,956.865z
		 M475.14,948.428h3.281c1.405,0,2.731,0.08,3.983,0.233c0.623,0.157,0.857,0.47,0.703,0.938c-0.626,1.875-0.938,3.516-0.938,4.922
		v47.578h-7.031L475.14,948.428L475.14,948.428z M484.047,964.834h11.016v-16.406h4.219c1.406,0,2.732,0.08,3.984,0.233
		c0.623,0.157,0.856,0.47,0.703,0.938c-0.469,1.721-0.783,3.516-0.938,5.391v9.844h12.656v6.563H503.03v20.156h10.781v6.094h-29.297
		v-6.094h10.547v-20.156h-11.016L484.047,964.834L484.047,964.834z"/>
	<path fill="#FFFFFF" d="M522.719,969.521v-7.031h21.563v-15.233h5.392c3.124,0,4.529,0.156,4.219,0.469c0,0.313,0,0.703,0,1.172
		c-0.314,1.095-0.469,2.344-0.469,3.75v9.844h20.858v7.031h-20.625c1.406,12.188,9.062,20.156,22.969,23.906
		c-2.97,2.654-5.002,5.468-6.094,8.438c-10.627-4.376-17.734-11.093-21.328-20.156c-3.28,8.283-10.627,15.077-22.03,20.392
		c-1.406-2.501-3.438-4.769-6.095-6.797c14.218-5.312,21.718-13.905,22.5-25.781h-20.859V969.521z"/>
	<path fill="#FFFFFF" d="M343.422,1033.318c3.593-4.842,6.248-9.529,7.969-14.063c3.435,0.313,6.013,0.626,7.733,0.938
		c0.623,0,0.857,0.234,0.703,0.703c0,0.157-0.233,0.469-0.703,0.938c-0.469,0.782-0.938,1.405-1.405,1.875h12.188v5.858h-7.266
		c1.091,2.501,1.56,3.984,1.406,4.453c0,0.157-2.268,0.86-6.798,2.109c0-0.154-0.392-2.345-1.172-6.563h-1.875
		c-1.875,2.813-3.438,5.002-4.688,6.563L343.422,1033.318z M373.422,1034.021l0.233,2.578h21.563v10.547h-7.267v-5.391h-37.266
		v5.155h-7.031V1036.6h22.031c-0.315-0.623-0.703-1.562-1.172-2.813c0-0.312,1.952-0.546,5.858-0.702
		c-0.314-0.154-0.859-0.47-1.641-0.938c2.813-4.219,4.765-8.438,5.859-12.656c3.28,0.157,5.778,0.393,7.5,0.703
		c0.469,0,0.779,0.157,0.938,0.469c0,0.157-0.157,0.47-0.469,0.938c-0.469,0.469-0.938,1.172-1.406,2.109h14.063v5.858h-7.734
		l1.406,4.688l-6.328,1.875c-0.469-1.249-1.172-3.437-2.109-6.563h-2.108c-1.406,2.032-2.501,3.75-3.281,5.156
		C374.904,1034.725,374.358,1034.49,373.422,1034.021z M360.765,1073.865h-7.5v-30h32.344v12.422h-24.844v2.109h26.719v15.234
		h-7.266v-2.578h-19.453V1073.865z M378.344,1051.365v-2.344h-17.578v2.344H378.344z M380.219,1066.6v-2.813h-19.453v2.813H380.219z
		"/>
	<path fill="#FFFFFF" d="M409.515,1029.334h-7.266v-6.095h19.922v6.095h-5.625v10.077h5.391v6.328h-5.391v11.25
		c0.623-0.153,1.482-0.389,2.578-0.703c1.405-0.469,2.497-0.856,3.28-1.172c0,0.626,0.077,1.486,0.234,2.578
		c0.154,2.658,0.233,4.142,0.233,4.453c-6.094,1.875-12.109,3.907-18.047,6.094c-1.252-2.344-2.267-4.922-3.047-7.733
		c0.938-0.313,2.265-0.623,3.984-0.938c1.718-0.469,2.967-0.78,3.75-0.938v-12.892h-6.797v-6.328h6.797v-10.076H409.515z
		 M424.28,1061.209v-6.095h10.547v-4.219h-11.25v-29.063h30.703v29.063h-12.422v4.219h11.953v6.095h-11.953v4.922h15v6.094h-37.031
		v-6.094h15v-4.922H424.28z M430.608,1027.928v5.625h4.219v-5.625H430.608z M430.608,1039.411v5.392h4.219v-5.392H430.608z
		 M441.858,1027.928v5.625h4.922v-5.625H441.858z M441.858,1044.803h4.922v-5.392h-4.922V1044.803z"/>
	<path fill="#FFFFFF" d="M472.094,1046.209c-2.032-1.719-5.079-3.75-9.142-6.095c-0.626-0.312-1.095-0.546-1.405-0.703l4.922-6.563
		c2.967,1.875,6.248,4.219,9.844,7.031L472.094,1046.209z M463.187,1067.771c2.344-5.312,4.922-11.639,7.734-18.984
		c1.875,1.406,3.903,2.501,6.094,3.281c-1.406,4.064-3.361,10.158-5.859,18.281c-0.157,0.78-0.313,1.326-0.469,1.641l-0.469,0.234
		C466.153,1069.724,463.81,1068.24,463.187,1067.771z M475.374,1034.021c-3.28-3.281-6.563-6.014-9.844-8.203l5.156-5.858
		c3.904,2.5,7.266,5.235,10.078,8.202L475.374,1034.021z M504.905,1047.615c3.593,1.252,6.405,2.424,8.438,3.517
		c0.153,0.156-0.08,0.626-0.703,1.405c-0.626,0.626-1.095,1.252-1.406,1.875c-5.471,10.313-16.329,17.029-32.578,20.156
		c-1.095-2.658-2.578-4.922-4.453-6.797C491.547,1066.054,501.778,1059.334,504.905,1047.615z M482.875,1030.036
		c0.622,0,3.2,0.626,7.733,1.875c-2.344,9.375-4.219,16.096-5.625,20.156c-2.658-1.092-5.313-1.718-7.969-1.875
		C479.981,1043.319,481.937,1036.6,482.875,1030.036z M492.719,1054.646v-34.922h4.688c2.188,0,3.201,0.233,3.047,0.703
		c0,0.157,0,0.313,0,0.469c-0.313,0.783-0.469,1.721-0.469,2.813v30.938L492.719,1054.646L492.719,1054.646z M510.297,1047.615
		c-2.345-5.468-5.313-10.624-8.906-15.469l6.328-3.516c1.875,2.501,4.373,6.484,7.5,11.952c0.779,1.406,1.406,2.502,1.875,3.281
		L510.297,1047.615z"/>
	<path fill="#FFFFFF" d="M522.483,1068.943c10.155-6.563,15.703-16.875,16.641-30.938h-15.469v-6.563h15.938
		c0.153-1.249,0.312-3.67,0.469-7.266c0.154-2.967,0.312-4.453,0.469-4.453c2.813,0.157,5.545,0.626,8.203,1.406
		c-0.157,0.313-0.392,1.798-0.703,4.453c-0.313,2.344-0.626,4.299-0.938,5.858h12.422c-1.563-3.593-2.97-6.171-4.219-7.733
		l7.5-3.517c2.028,3.281,3.593,6.094,4.688,8.438l-5.859,2.813h13.125v6.563h-18.516v14.297c3.436-4.063,5.938-8.046,7.5-11.953
		c4.53,2.813,7.031,4.533,7.5,5.156c-1.406,1.405-3.438,3.673-6.094,6.797c-3.75,4.532-6.72,7.813-8.906,9.844v2.578
		c0,0.783,0.389,1.172,1.172,1.172h7.5c1.718,0.626,2.578-1.562,2.578-6.563c2.813,1.096,5.468,1.875,7.969,2.345
		c0,7.653-2.501,11.327-7.5,11.016H555.53c-4.376,0-6.563-1.563-6.563-4.688v-0.47c-2.189,1.249-4.22,2.498-6.095,3.75
		c-1.405-2.188-2.813-4.062-4.219-5.625c3.594-1.718,7.031-4.062,10.313-7.03v-20.625h-2.345
		c-1.252,15.469-6.797,27.268-16.641,35.391C527.325,1071.521,524.827,1070.034,522.483,1068.943z"/>
</g>
</svg>
