<?xml version="1.0" encoding="utf-8"?>
<!-- Generator: Adobe Illustrator 16.0.0, SVG Export Plug-In . SVG Version: 6.00 Build 0)  -->
<!DOCTYPE svg PUBLIC "-//W3C//DTD SVG 1.1//EN" "http://www.w3.org/Graphics/SVG/1.1/DTD/svg11.dtd">
<svg version="1.1" id="图层_1" xmlns="http://www.w3.org/2000/svg" xmlns:xlink="http://www.w3.org/1999/xlink" x="0px" y="0px"
	 width="1000px" height="1600px" viewBox="0 0 1000 1600" enable-background="new 0 0 1000 1600" xml:space="preserve">
<rect x="629.313" y="835.427" fill="#F9EDED" width="340.688" height="356.127"/>
<g>
	<path fill="#D47783" d="M750.673,958.506v-10.781c1.249,0,2.654,0,4.219,0c1.718-0.154,2.655-0.077,2.813,0.234
		c0.313,0.156,0.47,0.625,0.47,1.405c-0.157,0.938-0.234,1.798-0.234,2.578v6.563h5.859v6.563h-5.859v6.328l4.922-2.109
		c0,0.47,0.077,1.096,0.234,1.875c0,0.626,0,1.096,0,1.406h33.516v6.094H783.25v3.75h10.313v5.859H783.25v5.391
		c6.248,0,11.017-0.153,14.298-0.469c-0.938,2.032-1.798,4.373-2.578,7.031h-11.25c-6.095,0-10.938-1.875-14.531-5.625
		c-0.157-0.154-0.234-0.313-0.234-0.469c-2.188,3.903-3.596,6.094-4.219,6.563c-0.626-0.313-1.875-0.859-3.75-1.641
		c-1.875-0.783-2.735-1.252-2.578-1.406c3.904-5.156,6.482-10.936,7.734-17.344c4.688,1.406,7.107,2.188,7.266,2.344
		c-0.469,0.938-1.018,2.344-1.641,4.219c0.78,2.501,2.187,4.219,4.219,5.156v-13.359h-13.594v-2.813l-4.219,1.875v15.938
		c0.623,4.999-2.971,7.42-10.781,7.267c-0.157-0.314-0.314-0.703-0.469-1.172c-0.783-2.658-1.486-4.607-2.109-5.859
		c4.062,0.157,6.014-0.469,5.859-1.875v-11.25l-5.859,2.813c-0.469-1.562-0.626-2.029-0.469-1.406l-1.642-6.094
		c3.124-0.938,5.779-1.796,7.97-2.578v-8.438h-6.798v-6.563L750.673,958.506L750.673,958.506z M792.859,970.459H766.14v-21.328
		h26.719V970.459z M785.125,955.225h-11.719v2.109h11.719V955.225z M785.125,962.49h-11.719v2.345h11.719V962.49z"/>
	<path fill="#D47783" d="M835.516,969.286v-20.858h3.047c3.436,0,5.156,0.156,5.156,0.469c0,0.157,0,0.469,0,0.938
		c-0.314,1.096-0.47,2.425-0.47,3.984v15.469h13.125v6.563H843.25v25.781h-7.733V975.85h-8.906v2.578
		c0.78,8.126-4.453,16.018-15.703,23.672c-1.875-2.501-4.299-4.376-7.266-5.625c10.313-5.156,15.312-11.404,15-18.75v-1.875H804.11
		v-6.563h14.531v-10.313c-1.252,0.157-3.204,0.549-5.859,1.172c-1.405,0.157-2.424,0.314-3.047,0.469
		c-0.938-2.813-2.032-4.999-3.281-6.563c9.998-0.47,18.048-2.188,24.142-5.156l0.233,0.234c0,0.156,0.154,0.549,0.47,1.172
		c1.249,2.813,2.028,4.845,2.344,6.094l-0.234,0.234c-0.469,0-1.406,0.156-2.813,0.469c-1.875,0.157-3.204,0.313-3.984,0.469v11.719
		H835.516z"/>
	<path fill="#D47783" d="M683.173,1022.536h22.969v-3.516c6.094,0,8.826,0.157,8.203,0.469c0.153,0.157,0.153,0.47,0,0.938
		c-0.314,0.626-0.47,1.329-0.47,2.108h23.203v5.625h-23.203v2.109h16.173v12.188h-16.173v2.108h18.281v7.267h5.625v5.391h-5.625
		v10.078h-7.969v-2.578h-10.078v3.75c0.469,4.53-3.204,6.563-11.016,6.094c-0.157-2.813-0.703-5.002-1.642-6.563
		c3.437,0.469,5.156,0,5.156-1.406v-1.875h-18.281v-5.391h18.281v-2.109h-24.141v-5.391h24.141v-2.345h-18.75v-4.922h18.75v-2.108
		h-16.172v-12.188h15.938v-2.109h-23.203L683.173,1022.536L683.173,1022.536z M697.703,1035.193v2.344h8.672v-2.344H697.703z
		 M713.875,1035.193v2.344h7.97v-2.344H713.875z M713.875,1049.49v2.345h10.313v-2.345H713.875z M724.188,1059.334v-2.109H714.11
		v2.109H724.188z"/>
	<path fill="#D47783" d="M753.25,1032.146c2.188,5.938,4.373,13.438,6.563,22.5v-33.516h4.453c3.124,0,4.373,0.313,3.75,0.938
		c-0.469,1.406-0.703,3.047-0.703,4.922v38.438H772v-44.297h4.923c2.813,0,4.062,0.313,3.75,0.938
		c-0.47,1.563-0.783,3.281-0.938,5.156v27.188c2.813-5.625,4.922-12.265,6.328-19.922c0.154-1.406,0.313-2.264,0.469-2.578
		c2.498,0.314,5.702,1.406,9.609,3.281c-0.469,0.783-1.172,2.578-2.109,5.391c-3.127,7.657-5.938,13.908-8.438,18.75l-1.406-0.469
		c-2.032-0.938-3.438-1.482-4.219-1.641v7.969h16.406v6.328h-53.203v-6.328h16.641v-7.969c-4.219,1.563-6.643,2.344-7.266,2.344
		c-0.157-0.469-0.314-1.092-0.47-1.875c-2.188-10.624-4.609-18.281-7.266-22.969C749.031,1033.476,751.844,1032.615,753.25,1032.146
		z"/>
	<path fill="#D47783" d="M810.673,1045.74h-8.438v-6.797h15.938v20.625c-0.626,4.688,4.139,6.954,14.297,6.797h6.094
		c5.937,0,12.188-0.233,18.75-0.703c-1.095,2.655-1.798,4.999-2.109,7.031h-28.827c-4.22,0-7.814-1.406-10.781-4.219
		c-0.783-0.623-1.329-0.938-1.642-0.938c-0.782,0-2.344,1.406-4.688,4.22c-0.783,0.938-1.252,1.405-1.406,1.405
		c-1.875-1.563-3.75-3.516-5.625-5.858c0.313-0.154,0.78-0.47,1.406-0.938c5.311-2.813,7.654-4.922,7.031-6.328V1045.74z
		 M810.438,1035.193c-0.783-3.281-2.032-6.874-3.75-10.781l7.969-2.577c0.154,0.469,0.39,1.172,0.703,2.108
		c0.938,2.813,1.875,5.782,2.813,8.906L810.438,1035.193z M832.938,1026.99h5.391c0.623-1.561,1.406-4.139,2.345-7.733
		c4.219,0.782,7.03,1.641,8.438,2.578l-0.469,0.702c-1.095,1.406-2.032,2.894-2.813,4.453h9.845v6.095h-15.234
		c-0.157,0.313-0.234,0.702-0.234,1.172c-0.156,0.469-0.233,0.859-0.233,1.172h11.25v29.063h-7.734v-2.108h-13.594v1.641h-7.031
		v-28.594h9.609v-2.345h-12.656v-6.094h7.969c-0.469-1.718-1.172-3.516-2.108-5.391c1.561-0.469,3.983-1.249,7.266-2.344
		l2.813,6.797L832.938,1026.99z M829.891,1040.818v2.344h13.594v-2.344H829.891z M843.484,1049.959v-2.345H829.89v2.345H843.484z
		 M829.891,1054.646v2.813h13.594v-2.813H829.891z"/>
	<path fill="#D47783" d="M886.609,1035.661c2.655-3.28,4.842-8.749,6.563-16.405c3.436,0,6.248,0.313,8.438,0.938
		c0.154,0,0.077,0.234-0.233,0.703c-0.627,1.252-1.173,2.578-1.642,3.984H914.5c-1.252,6.407-3.75,11.719-7.5,15.938
		c1.875,1.095,5.392,2.344,10.548,3.75c0.623,0.157,1.015,0.234,1.172,0.234c-1.875,3.127-2.97,5.858-3.281,8.203
		c-0.314-0.154-1.252-0.547-2.813-1.172v22.03h-7.266v-3.516h-8.438v3.516h-7.031v-20.858c-0.626,0.313-1.252,0.626-1.875,0.938
		c-0.314-0.78-0.938-1.641-1.875-2.578v3.517h-5.391v6.094c0.938-0.154,2.344-0.469,4.219-0.938
		c1.561-0.312,2.654-0.546,3.281-0.703c-0.157,1.875-0.157,3.984,0,6.328c-7.814,1.563-15.47,3.67-22.97,6.328
		c-0.626,0.313-1.018,0.313-1.172,0c-0.313-0.626-0.626-1.563-0.938-2.813c-0.157-0.938-0.314-1.562-0.47-1.875
		c-0.313-1.406-0.392-2.265-0.233-2.578c0.153-0.154,1.092-0.313,2.813-0.469v-19.22h3.517c2.498,0,3.593,0.157,3.28,0.47
		c0,0.156,0,0.392,0,0.703c-0.313,0.625-0.469,1.641-0.469,3.047v13.828l2.578-0.47v-20.155h-8.203v-19.923h20.625L886.609,1035.661
		L886.609,1035.661z M872.781,1028.631v8.203h6.797v-8.203H872.781z M886.141,1046.678c4.688-1.719,8.046-3.437,10.078-5.156
		c-0.938-1.406-1.875-2.813-2.813-4.219c-0.626,0.938-1.485,2.108-2.578,3.516c-0.156,0.314-0.313,0.549-0.469,0.703
		c-1.406-1.406-2.658-2.344-3.75-2.813v3.75h-5.859v6.563h3.984c-0.157-0.313-0.469-0.546-0.938-0.703l-0.234-0.469
		C884.186,1047.537,885.047,1047.146,886.141,1046.678z M901.375,1045.975c-2.344,1.875-4.922,3.596-7.733,5.156h17.578
		C909.344,1050.351,906.063,1048.633,901.375,1045.975z M905.359,1065.193v-7.969h-8.438v7.969H905.359z M897.391,1030.74
		c0.469,1.563,1.875,3.673,4.219,6.328c1.562-1.875,2.655-3.983,3.281-6.328H897.391z"/>
</g>
</svg>
