<?xml version="1.0" encoding="utf-8"?>
<!-- Generator: Adobe Illustrator 16.0.0, SVG Export Plug-In . SVG Version: 6.00 Build 0)  -->
<!DOCTYPE svg PUBLIC "-//W3C//DTD SVG 1.1//EN" "http://www.w3.org/Graphics/SVG/1.1/DTD/svg11.dtd">
<svg version="1.1" id="图层_1" xmlns="http://www.w3.org/2000/svg" xmlns:xlink="http://www.w3.org/1999/xlink" x="0px" y="0px"
	 width="1000px" height="1600px" viewBox="0 0 1000 1600" enable-background="new 0 0 1000 1600" xml:space="preserve">
<rect x="288.624" y="1191.136" fill="#FBF4F4" width="340.688" height="356.128"/>
<g>
	<path fill="#D47783" d="M411.624,1284.31h-9.141v-6.563h9.141v-10.78h4.688c2.344,0,3.436,0.157,3.281,0.469
		c0,0.157-0.08,0.469-0.234,0.938c-0.157,0.938-0.234,2.189-0.234,3.75v5.625h7.5v6.563h-7.5v7.266
		c2.813-0.938,5.546-1.875,8.203-2.813c0,1.875,0.39,3.907,1.172,6.094c-3.127,1.253-6.251,2.425-9.375,3.516v17.578
		c1.249,3.594-2.424,5.156-11.016,4.688c-0.626-2.97-1.486-5.233-2.578-6.797c4.999,0.314,7.031-0.388,6.094-2.109v-11.016
		c-1.095,0.469-2.577,1.172-4.452,2.108c-1.563,0.784-2.425,1.172-2.578,1.172c-0.938-2.813-1.722-5.543-2.345-8.202
		c3.281-0.622,6.405-1.406,9.375-2.345L411.624,1284.31L411.624,1284.31z M440.452,1311.028v-30.703h-11.953v-6.563h28.125v6.563
		h-8.202v35.392c0.623,4.372-3.907,6.327-13.595,5.858c-0.156-3.281-0.938-5.937-2.344-7.969
		C438.731,1314.232,441.39,1313.371,440.452,1311.028z"/>
	<path fill="#D47783" d="M470.219,1307.746v-15h-7.5v-6.563h14.766v22.734c2.029,2.813,5.779,4.3,11.25,4.452h15.938
		c2.497,0,6.327-0.233,11.483-0.702c0.469,0,0.857,0,1.172,0c-1.721,2.5-2.578,4.998-2.578,7.5h-10.077
		c-11.876-0.157-19.22-0.393-22.031-0.703c-2.658-0.47-5.079-1.723-7.267-3.75c-0.938-0.622-1.641-0.938-2.108-0.938
		c-0.626,0-1.722,1.172-3.281,3.517c-1.095,1.56-1.721,2.344-1.875,2.344c-2.97-2.501-4.922-4.77-5.859-6.797
		c0-0.153,0.78-0.703,2.345-1.642C468.344,1309.856,470.219,1308.373,470.219,1307.746z M470.687,1283.138
		c-1.252-4.841-2.501-8.749-3.75-11.72c0.154-0.469,2.578-1.324,7.266-2.577c1.406,3.438,2.655,7.5,3.75,12.188l-1.875,0.703
		C472.639,1282.825,470.842,1283.295,470.687,1283.138z M490.608,1274.231h3.75v-7.031h3.75c1.092,0,2.109,0,3.047,0
		c0.938,0.157,1.326,0.551,1.172,1.172c0,0.157-0.08,0.47-0.233,0.938c-0.157,0.626-0.234,1.095-0.234,1.406v3.516h10.547v6.328
		h-10.547v4.688h13.594v6.095h-35.858v-6.095h14.766v-4.688h-5.625c-0.626,1.406-1.095,2.425-1.406,3.047
		c-2.031-0.622-4.452-1.015-7.266-1.172c1.406-3.124,2.498-6.64,3.281-10.547c0.153-1.561,0.389-2.421,0.703-2.578
		c4.688,0.938,7.186,1.563,7.5,1.875c0,0.157-0.08,0.55-0.234,1.172C490.997,1273.141,490.763,1273.763,490.608,1274.231z
		 M491.312,1308.918v2.345h-7.266v-17.813h27.655v17.578h-7.733v-2.109H491.312z M491.312,1299.074v4.453h12.656v-4.453H491.312z"/>
	<path fill="#D47783" d="M372.952,1381.153h21.797v-29.063h-18.047v-7.267h45v7.267h-18.516v29.063h22.5v6.797h-52.734V1381.153z"/>
	<path fill="#D47783" d="M431.077,1367.56c5.312-6.874,9.062-16.483,11.25-28.828c2.029,0.315,4.999,1.172,8.906,2.578v0.469
		c-0.313,0.784-1.095,2.578-2.344,5.392c-0.938,2.344-1.642,4.142-2.109,5.391v40.781h-7.031v-26.25
		c-1.721,2.659-3.28,4.769-4.688,6.328C434.124,1371.7,432.796,1369.75,431.077,1367.56z M448.89,1362.638
		c5.156-6.405,8.749-14.374,10.781-23.906c3.903,0.938,6.797,1.798,8.672,2.578v0.469c0.153,0.315-0.314,1.329-1.406,3.047
		c-0.783,1.563-1.406,2.895-1.875,3.984h21.563v6.328h-18.28v7.5h14.53v6.563h-14.53v7.267h16.405v6.563h-16.405v11.016h-7.5
		v-37.266c-1.252,2.501-3.047,5.548-5.392,9.141c-0.313,0.47-0.549,0.784-0.703,0.938
		C453.186,1365.139,451.233,1363.732,448.89,1362.638z"/>
	<path fill="#D47783" d="M515.219,1344.591c-0.157-1.719-0.469-3.2-0.938-4.453v-0.703c3.124-0.469,6.095-0.703,8.906-0.703
		c0,0.315,0.077,0.703,0.234,1.172c0.312,2.19,0.469,3.75,0.469,4.688h20.858v12.655h-7.03v3.281h-7.5
		c6.874,5.625,10.313,8.753,10.313,9.375l-6.094,4.219c-0.314-0.622-0.86-1.249-1.641-1.875c-0.47-0.469-0.783-0.779-0.938-0.938
		c-3.75,0-6.563,0.081-8.438,0.233v4.453h16.875v6.095H523.42v3.75h22.266v6.094h-52.734v-6.094h22.267v-3.75h-17.345v-6.095h17.345
		v-4.219l-3.517,0.234c-1.405,0-3.983,0.233-7.733,0.703c-0.938,0.156-1.486,0.233-1.642,0.233
		c-0.938-3.593-1.405-6.013-1.405-7.266c2.654-0.469,4.688-1.249,6.094-2.344c0.938-0.47,1.875-1.406,2.813-2.813H499.75v-3.047
		h-5.859v-12.891h21.328V1344.591z M501.39,1354.435h35.391v-3.516H501.39V1354.435z M522.719,1362.871l3.047-2.344h-4.922
		c-0.626,0.469-1.563,1.172-2.813,2.109c-2.658,2.031-3.907,3.047-3.75,3.047l11.72-0.234c-0.314-0.152-0.783-0.469-1.406-0.938
		C523.342,1363.574,522.719,1363.029,522.719,1362.871z"/>
	<path fill="#D47783" d="M414.672,1446.824c0.779,0.469,2.264,1.172,4.452,2.109c1.875,0.784,2.891,1.253,3.048,1.406
		c-4.22,4.533-8.438,8.595-12.656,12.188c-1.875-1.563-4.064-3.047-6.563-4.453C408.108,1454.95,412.013,1451.2,414.672,1446.824z
		 M403.89,1414.716c21.405,0.469,36.563-0.47,45.469-2.813c1.249,1.253,2.891,3.75,4.922,7.5c-0.157,0.157-1.875,0.315-5.156,0.469
		c-6.094,0.157-11.876,0.47-17.344,0.938c-0.313,0.314-1.798,1.563-4.453,3.75c-2.344,2.032-3.906,3.362-4.688,3.983l8.906-0.469
		c0.312-0.152,2.344-1.718,6.094-4.688c2.187-1.875,3.357-2.813,3.516-2.813c2.813,1.723,4.999,3.598,6.563,5.625
		c0,0.157-1.798,1.253-5.392,3.281c-6.72,3.75-12.422,7.031-17.108,9.844h15.703l-3.517-3.516c2.344-1.718,4.296-3.124,5.859-4.219
		c4.53,4.376,8.356,8.519,11.484,12.422c-2.345,1.875-4.377,3.438-6.095,4.688l-2.813-3.28l-11.25,0.233v15.234
		c0.623,3.124-3.204,4.605-11.484,4.453c-0.469-2.032-1.252-4.301-2.344-6.798c4.062,0,5.937-0.546,5.625-1.641v-10.781
		c-8.126-0.152-13.908,0.157-17.344,0.938c-0.314,0-0.55,0-0.703,0c-0.157-0.938-0.314-2.109-0.47-3.517
		c-0.313-1.56-0.549-2.966-0.702-4.219c5.155,0,10.154-1.794,15-5.391c-3.75,0.314-7.814,0.703-12.188,1.172
		c-0.626-3.124-0.938-5.468-0.938-7.031c3.75,0.157,7.42-2.027,11.016-6.563c-1.406,0-3.516,0.081-6.328,0.233
		c-2.813,0.157-5.002,0.315-6.563,0.47C406.233,1419.561,405.139,1417.06,403.89,1414.716z M437.172,1452.216
		c2.028-1.875,3.75-3.517,5.155-4.923c4.688,2.659,9.375,6.018,14.063,10.078c-1.721,1.563-3.673,3.358-5.859,5.392
		C447.561,1459.481,443.107,1455.966,437.172,1452.216z"/>
	<path fill="#D47783" d="M474.437,1441.199c0.623-0.152,1.561-0.312,2.813-0.469c1.875-0.469,3.671-0.78,5.392-0.938
		c-0.469,2.344-0.626,4.452-0.469,6.327c-8.438,1.406-14.454,2.578-18.048,3.517h-0.702c-0.626-1.719-1.096-4.219-1.406-7.5
		l0.703-0.234c2.028-0.152,3.903-1.325,5.625-3.516c1.092-1.249,2.187-2.813,3.28-4.688c-0.782,0-2.501,0.315-5.155,0.938
		c-2.345,0.469-3.597,0.626-3.75,0.469c-0.938-2.497-1.486-4.765-1.642-6.797l0.234-0.234c2.344-0.622,3.904-1.952,4.688-3.983
		c2.498-6.874,4.063-11.25,4.688-13.125c2.344,0.469,5.076,1.405,8.203,2.813c0,0.157-0.234,0.626-0.703,1.406
		c-2.032,2.97-4.376,7.112-7.031,12.422l3.984-0.234c1.875-3.28,2.967-5.31,3.281-6.094l4.219,2.109v-4.453h11.483
		c-0.156-0.469-0.313-1.172-0.469-2.109c-0.469-2.027-0.783-3.435-0.938-4.219c2.967-0.469,5.937-0.856,8.906-1.172
		c0,0.314,0.076,1.019,0.233,2.108c0.313,2.813,0.546,4.61,0.703,5.392h12.422v6.328H499.75l-5.392,9.375
		c4.688-0.313,7.813-0.47,9.375-0.47c-0.938-1.091-1.955-2.344-3.047-3.75l5.391-3.28c3.75,4.064,7.031,8.359,9.845,12.891
		c-1.875,0.784-3.984,2.032-6.328,3.75c-0.626-1.091-1.486-2.421-2.578-3.983l-1.641,0.233v16.642
		c-0.157,1.405,0.233,2.031,1.172,1.875h0.938c1.249,0.469,1.795-1.406,1.641-5.625c3.125,1.095,5.702,1.722,7.734,1.875
		c-0.469,7.812-2.578,11.25-6.328,10.313h-7.969c-3.281,0.469-4.768-1.329-4.453-5.391v-19.22l-2.109,0.234
		c-0.156,8.906-1.018,14.531-2.577,16.875c-1.563,2.813-5.705,5.702-12.423,8.672c-1.405-2.501-2.893-4.688-4.452-6.563
		c8.592-0.622,12.575-5.544,11.952-14.767v-3.75c-0.782,0-1.798,0.081-3.047,0.234h-1.172c-0.313-0.78-0.626-3.2-0.938-7.266h0.233
		c1.719,0.156,2.891-0.077,3.517-0.703c1.249-1.406,2.654-4.139,4.219-8.203h-5.625
		C484.123,1426.825,480.373,1432.141,474.437,1441.199z M482.875,1448.935c0,2.032,0.233,4.219,0.702,6.563
		c-9.221,2.5-15.703,4.371-19.453,5.625h-0.233l-1.172-3.75l-1.406-3.75C467.874,1452.373,475.06,1450.81,482.875,1448.935z"/>
</g>
</svg>
