<?xml version="1.0" encoding="utf-8"?>
<!-- Generator: Adobe Illustrator 16.0.0, SVG Export Plug-In . SVG Version: 6.00 Build 0)  -->
<!DOCTYPE svg PUBLIC "-//W3C//DTD SVG 1.1//EN" "http://www.w3.org/Graphics/SVG/1.1/DTD/svg11.dtd">
<svg version="1.1" id="图层_1" xmlns="http://www.w3.org/2000/svg" xmlns:xlink="http://www.w3.org/1999/xlink" x="0px" y="0px"
	 width="1000px" height="1600px" viewBox="0 0 1000 1600" enable-background="new 0 0 1000 1600" xml:space="preserve">
<rect x="288.624" y="478.062" fill="#F7E7E7" width="340.688" height="356.127"/>
<g>
	<path fill="#D47783" d="M395.219,615.203c3.593-9.687,5.937-17.966,7.03-24.844l0.234-0.938c0.313-0.313,3.124,0.233,8.438,1.641
		h0.233c0.938,0.157,1.016,0.703,0.234,1.641c-0.314,0.47-0.549,0.784-0.703,0.938c-0.314,1.252-1.095,3.516-2.344,6.797h17.344
		v6.563h-4.922c-0.783,9.375-2.578,16.721-5.392,22.03c2.498,2.501,6.718,4.769,12.656,6.797c-2.501,2.501-4.533,5.076-6.094,7.734
		c-3.438-1.875-7.423-4.534-11.953-7.969c-4.533,3.593-10.001,6.64-16.406,9.141c-1.252-1.875-3.204-3.907-5.858-6.094
		c7.185-1.875,13.045-4.841,17.578-8.906c-1.722-2.655-3.204-5.858-4.453-9.608l-1.642,2.577c-1.875-1.091-4.142-1.952-6.797-2.577
		c0.78-1.25,1.483-2.422,2.109-3.517h-6.328v11.25c1.56-0.469,3.593-0.938,6.094-1.406c1.406-0.312,2.421-0.546,3.047-0.702
		c0,1.252,0.154,3.28,0.47,6.094c-8.438,2.189-15.315,4.219-20.625,6.094c-1.563,0.469-2.501,0.703-2.813,0.703
		c-0.157-0.623-0.469-1.641-0.938-3.047c-0.938-2.966-1.252-4.53-0.938-4.688c0.313-0.312,2.188-0.703,5.625-1.172
		c1.249-0.154,2.188-0.312,2.813-0.469V616.61h-7.97v-6.094h7.97v-9.844h-8.438v-6.095h25.078v6.095h-9.375v9.844h7.031v4.688
		H395.219z M405.297,610.517c1.092,5.156,2.577,9.221,4.452,12.188c1.719-3.903,2.813-9.218,3.281-15.938h-6.563
		c0,0.157-0.08,0.315-0.234,0.469C406.077,607.55,405.765,608.642,405.297,610.517z"/>
	<path fill="#D47783" d="M466.469,607.47v-6.095h4.219V590.36h2.109c4.062,0,5.858,0.157,5.391,0.469c0,0.157-0.08,0.47-0.234,0.938
		c-0.156,0.626-0.233,1.252-0.233,1.875v7.733h7.5v6.095h-7.031c1.249,7.814,4.53,14.688,9.844,20.625l-3.75,7.733
		c-3.28-3.75-5.471-7.185-6.563-10.313v18.75h-7.031v-18.984c-0.157,0.315-0.314,0.703-0.469,1.172
		c-2.032,4.22-3.75,7.347-5.156,9.375c-1.406-1.718-2.735-3.047-3.984-3.983v12.422h-6.563V622.47
		c-0.783,2.189-1.875,4.609-3.281,7.266l-0.703-0.703c-0.157,1.563-0.233,3.438-0.233,5.625c-5.939,1.406-11.174,2.813-15.703,4.22
		c-0.47-0.623-1.252-3.048-2.345-7.267c0.78-0.154,1.796-0.388,3.048-0.703c1.249-0.153,2.264-0.312,3.047-0.469v-13.594h-5.156
		v-6.095h5.156v-9.608h-5.625v-6.094h17.344v6.327h4.453V590.36h2.108c3.594,0,5.312,0.157,5.156,0.469c0,0.315,0,0.703,0,1.172
		c-0.313,0.784-0.469,1.642-0.469,2.578v6.797h3.75v6.095h-3.75v4.453c1.406-0.623,2.187-0.938,2.344-0.938
		c0.78,1.095,2.029,3.438,3.75,7.031c1.562-3.593,2.578-7.108,3.047-10.547L466.469,607.47L466.469,607.47z M445.375,629.5
		c1.875-0.469,3.201-0.779,3.984-0.938c-0.469-0.469-1.172-1.091-2.109-1.875c-0.938-0.78-1.405-1.249-1.405-1.406l0.233-0.469
		c3.594-4.53,6.248-10.313,7.97-17.344h-5.156v-6.094h-3.517v9.375h3.984v6.094h-3.984V629.5z M461.078,629.735
		c0.938-1.249,2.188-3.281,3.75-6.094c0.623-1.091,1.093-1.952,1.406-2.578c-1.875,1.406-2.893,2.109-3.047,2.109
		c-0.157,0-0.703-0.938-1.641-2.813c-0.157-0.623-0.314-1.015-0.47-1.172L461.078,629.735L461.078,629.735z"/>
	<path fill="#D47783" d="M517.328,635.36c-0.938,0.315-2.424,0.86-4.453,1.641c-7.188,2.345-12.11,4.297-14.766,5.859l-0.469-0.234
		c-1.406-2.658-2.501-4.688-3.281-6.094l0.234-0.233c1.092-0.47,1.641-1.249,1.641-2.345v-12.891H511v-3.75h-17.344v-5.625h24.142
		v15.234h-14.767v7.266c0.779-0.313,2.029-0.78,3.75-1.406c4.688-1.56,8.279-2.813,10.781-3.75
		C517.404,631.691,517.328,633.8,517.328,635.36z M500.922,597.625v5.625h3.047v-13.125h2.813c2.967,0,4.295,0.157,3.984,0.47
		c0,0.157-0.08,0.392-0.234,0.703c-0.158,0.783-0.233,1.798-0.233,3.047v8.905h3.047v-9.608h4.453c1.248-0.154,1.95,0,2.108,0.469
		c0,0.157-0.08,0.393-0.233,0.703c-0.158,0.626-0.234,1.406-0.234,2.344v11.953h-25.079v-15.703h4.219c0.154,0,0.47,0,0.938,0
		c1.249-0.153,1.875,0,1.875,0.47c0,0.314-0.08,0.625-0.234,0.938C501,595.597,500.922,596.534,500.922,597.625z M522.25,618.485
		v-23.906h17.109v39.845c-0.158,1.252,0.154,1.798,0.938,1.641c0.938,0.157,1.405-1.326,1.405-4.453
		c2.029,1.252,4.14,1.956,6.328,2.109c-0.938,7.03-3.36,10.39-7.266,10.078h-2.578c-3.75,0-5.625-1.563-5.625-4.688v-38.438h-3.75
		v16.875c0.154,12.033-3.281,21.171-10.313,27.422c-1.722-1.252-3.908-2.424-6.563-3.517
		C518.969,636.924,522.404,629.267,522.25,618.485z"/>
	<path fill="#D47783" d="M425.453,666.578c-0.156-0.312-0.313-0.779-0.469-1.405c-0.469-1.406-0.703-2.345-0.703-2.813
		c0.78-0.154,3.827-0.388,9.142-0.703c0.153,0,0.312,1.642,0.469,4.922h20.391v11.25h-6.563v3.281h-15.234
		c2.813,0.469,7.889,1.641,15.234,3.516c1.249,0.315,2.028,0.55,2.344,0.703c-1.252,1.096-2.267,2.19-3.047,3.281h9.141v5.625
		h-8.438v16.641c1.561,4.53-2.032,6.563-10.781,6.095c0.154-2.032-0.314-3.984-1.406-5.859h-6.797v-1.406h-11.25v2.578h-7.266
		V696.11h26.016v14.063c3.437,0.314,4.842-0.47,4.219-2.345v-13.594h-37.969v-5.625h6.563c-0.157-1.091-0.938-2.344-2.345-3.75
		c6.563-0.623,11.25-1.875,14.063-3.75h-10.781v-2.813h-5.859v-11.72L425.453,666.578L425.453,666.578z M425.219,672.906
		c4.373,0.157,7.107,0.549,8.203,1.172c0.153,0.157,0.076,0.47-0.234,0.938c-0.314,0.314-0.469,0.549-0.469,0.703h13.828v-3.281
		h-34.923v3.281h12.892c0.154-0.47,0.312-1.091,0.469-1.875C424.984,673.222,425.061,672.906,425.219,672.906z M417.484,701.5v3.281
		h11.25V701.5H417.484z M420.062,688.61h18.75c-1.563-0.623-4.219-1.56-7.969-2.813c-1.406-0.623-2.424-1.016-3.047-1.172
		C424.358,686.657,421.78,687.988,420.062,688.61z"/>
	<path fill="#D47783" d="M465.297,708.063c2.187-1.406,3.28-3.124,3.28-5.156v-16.641h-6.328v-6.563h13.828v20.625l3.984-3.983
		c0.938,1.721,2.109,3.516,3.516,5.391v-7.5h27.657v21.797h-7.969v-3.047h-12.422v3.281h-7.267v-13.594
		c-3.906,3.28-8.126,7.5-12.655,12.655C468.889,713.139,467.014,710.719,465.297,708.063z M469.515,676.188
		c-0.783-3.593-2.189-7.266-4.219-11.016c2.967-0.78,5.701-1.642,8.203-2.578c1.405,3.127,2.731,7.031,3.983,11.719
		c-0.783,0.157-2.501,0.549-5.156,1.172C471.233,675.8,470.296,676.034,469.515,676.188z M481.234,674.313h7.5
		c0.313-1.406,0.469-2.732,0.469-3.984h-10.078v-6.563h35.157v6.563h-17.109l-0.703,3.984h13.359v11.25h6.798v6.094h-38.438v-6.094
		h9.375c0.469-1.875,0.703-3.593,0.703-5.156h-7.031L481.234,674.313L481.234,674.313z M503.266,707.36v-7.031h-12.422v7.031
		H503.266z M495.765,680.406c-0.157,1.563-0.393,3.281-0.703,5.156h7.266v-5.156H495.765z"/>
</g>
</svg>
